<svg width="66" height="46" viewBox="0 0 66 46" fill="none" xmlns="http://www.w3.org/2000/svg">
<g id="Logo">
<path id="Vector" d="M40.2099 22.6532L32.7423 9.729C32.7184 9.68784 32.6849 9.65377 32.6451 9.63007C32.6052 9.60637 32.5602 9.59384 32.5145 9.59367C32.4689 9.5935 32.424 9.6057 32.3842 9.62911C32.3444 9.65252 32.3111 9.68633 32.2874 9.72732C27.6781 17.6767 23.0745 25.6485 18.4768 33.6426C17.8374 34.7533 16.9229 35.5959 15.6314 35.5071C14.3473 35.42 13.4025 34.6829 12.7971 33.2958C8.65213 23.8119 4.51675 14.323 0.390909 4.82901C-0.897421 1.86556 1.1655 -0.633851 4.13979 0.230557C7.89238 1.31944 11.6492 2.39046 15.4103 3.44361C16.8911 3.85739 18.1953 4.3231 18.6025 6.01841C19.0637 7.9382 17.7865 9.67204 15.9224 9.83788C15.5248 9.87362 15.018 9.80494 14.4019 9.63183C12.4869 9.0913 10.5454 8.54406 8.57737 7.99013C8.55222 7.98279 8.52559 7.98319 8.50065 7.99127C8.4757 7.99935 8.45347 8.01479 8.43658 8.03575C8.41969 8.05671 8.40884 8.08232 8.40533 8.10956C8.40181 8.1368 8.40577 8.16453 8.41673 8.18948L15.9702 25.5597C15.9781 25.5778 15.9906 25.5933 16.0063 25.6046C16.0219 25.6158 16.0402 25.6224 16.0591 25.6236C16.078 25.6248 16.0969 25.6206 16.1137 25.6114C16.1305 25.6022 16.1447 25.5884 16.1547 25.5715C20.5732 17.9079 25.0007 10.236 29.4372 2.55575C29.9175 1.72317 30.409 0.964299 31.2043 0.510317C33.2083 -0.637202 34.7702 1.00618 35.7484 2.7953C36.7743 4.67489 37.8559 6.526 38.9438 8.36705C42.0019 13.6942 45.0658 19.018 48.1355 24.3385C48.3772 24.7573 48.6466 25.1566 48.9435 25.5363C48.9518 25.5469 48.9625 25.5552 48.9747 25.5603C48.9869 25.5654 49 25.5672 49.013 25.5655C49.026 25.5639 49.0384 25.5588 49.0491 25.5507C49.0597 25.5427 49.0682 25.532 49.0739 25.5195L56.5383 8.35867C56.6814 8.02922 56.5876 7.9153 56.2567 8.01693C54.5135 8.55077 52.8201 9.03881 51.1766 9.48106C50.0833 9.77478 49.3098 9.89373 48.856 9.83788C47.9536 9.72732 47.2586 9.22308 46.7708 8.32517C46.0349 6.97048 46.1881 5.71017 47.2305 4.54422C47.6217 4.10699 48.5331 3.7485 49.2011 3.56087C53.4001 2.37315 57.5912 1.08659 61.8156 0.00607845C63.6956 -0.114537 65.3498 1.57743 65.0651 3.51899C65.0195 3.8317 64.7162 4.62854 64.1553 5.90952C60.2373 14.8685 56.3299 23.832 52.4331 32.8C51.7539 34.3646 51.2179 35.4066 49.586 35.5256C48.4281 35.6076 47.3211 34.9811 46.7279 33.9475C44.5626 30.1783 42.3899 26.4135 40.2099 22.6532Z" fill="white"/>
<path id="Vector_2" d="M35.1647 36.1671C38.2964 36.6412 40.609 37.6765 43.3798 39.144C44.9321 39.9648 45.7258 41.6149 45.0371 43.3404C44.5313 44.6102 43.2191 45.4092 41.9371 45.1848C41.6212 45.13 41.0427 44.8816 40.2019 44.4393C38.1151 43.3437 35.9838 42.5011 33.6393 42.3168C30.4933 42.0599 27.5508 42.7479 24.8119 44.3807C23.2452 45.3154 21.3907 45.4143 20.2614 43.7072C19.5435 42.6217 19.5128 41.5054 20.1691 40.3585C20.6511 39.5159 21.6165 38.9128 22.4484 38.494C26.3261 36.539 30.8989 35.5456 35.1647 36.1671Z" fill="white"/>
</g>
</svg>
